<mxfile host="app.diagrams.net" modified="2021-03-13T18:39:07.530Z" agent="5.0 (X11)" etag="xyIRJLIpE1mESx3DXFiv" version="14.4.8" type="github">
  <diagram id="C5RBs43oDa-KdzZeNtuy" name="Page-1">
    <mxGraphModel dx="2424" dy="1386" grid="1" gridSize="10" guides="1" tooltips="1" connect="1" arrows="1" fold="1" page="1" pageScale="1" pageWidth="1654" pageHeight="1169" math="0" shadow="0">
      <root>
        <mxCell id="WIyWlLk6GJQsqaUBKTNV-0" />
        <mxCell id="WIyWlLk6GJQsqaUBKTNV-1" parent="WIyWlLk6GJQsqaUBKTNV-0" />
        <mxCell id="1dI4HZFnmqrguRHLOIFw-21" style="edgeStyle=orthogonalEdgeStyle;rounded=0;sketch=0;orthogonalLoop=1;jettySize=auto;html=1;exitX=1;exitY=0.5;exitDx=0;exitDy=0;endArrow=classic;endFill=1;endSize=6;fontSize=12;fontColor=#46495D;" parent="WIyWlLk6GJQsqaUBKTNV-1" source="WIyWlLk6GJQsqaUBKTNV-3" target="1dI4HZFnmqrguRHLOIFw-9" edge="1">
          <mxGeometry relative="1" as="geometry" />
        </mxCell>
        <mxCell id="WIyWlLk6GJQsqaUBKTNV-3" value="&lt;div&gt;&lt;b&gt;Step 1&lt;/b&gt;: Configure Domain Admin&lt;/div&gt;&lt;div&gt;with onion routing (&lt;b&gt;Tor&lt;/b&gt;) enabled&lt;/div&gt;" style="whiteSpace=wrap;html=1;fontSize=12;glass=0;strokeWidth=1;shadow=0;fillColor=#B2C9AB;strokeColor=#788AA3;fontColor=#46495D;" parent="WIyWlLk6GJQsqaUBKTNV-1" vertex="1">
          <mxGeometry x="40" y="240" width="240" height="40" as="geometry" />
        </mxCell>
        <mxCell id="WIyWlLk6GJQsqaUBKTNV-11" value="&lt;b&gt;Step 4&lt;/b&gt;: Package VPN installation via packer (&lt;b&gt;hashicorp&lt;/b&gt;)" style="whiteSpace=wrap;html=1;fontSize=12;glass=0;strokeWidth=1;shadow=0;fillColor=#B2C9AB;strokeColor=#788AA3;fontColor=#46495D;" parent="WIyWlLk6GJQsqaUBKTNV-1" vertex="1">
          <mxGeometry x="800" y="320" width="260" height="40" as="geometry" />
        </mxCell>
        <mxCell id="1dI4HZFnmqrguRHLOIFw-1" value="Blueprint A" style="text;html=1;strokeColor=none;fillColor=none;align=center;verticalAlign=middle;whiteSpace=wrap;rounded=0;sketch=0;fontColor=#46495D;fontStyle=1;fontSize=22;" parent="WIyWlLk6GJQsqaUBKTNV-1" vertex="1">
          <mxGeometry x="587" y="50" width="480" height="20" as="geometry" />
        </mxCell>
        <mxCell id="1dI4HZFnmqrguRHLOIFw-22" style="edgeStyle=orthogonalEdgeStyle;rounded=0;sketch=0;orthogonalLoop=1;jettySize=auto;html=1;exitX=1;exitY=0.5;exitDx=0;exitDy=0;endArrow=classic;endFill=1;endSize=6;fontSize=12;fontColor=#46495D;" parent="WIyWlLk6GJQsqaUBKTNV-1" source="1dI4HZFnmqrguRHLOIFw-9" target="1dI4HZFnmqrguRHLOIFw-18" edge="1">
          <mxGeometry relative="1" as="geometry" />
        </mxCell>
        <mxCell id="1dI4HZFnmqrguRHLOIFw-9" value="&lt;b&gt;Step 2&lt;/b&gt;: Connect host to VPN (&lt;b&gt;WireGuard/OpenVPN&lt;/b&gt;)" style="rounded=0;whiteSpace=wrap;html=1;sketch=0;strokeColor=#788AA3;fillColor=#B2C9AB;fontSize=12;fontColor=#46495D;" parent="WIyWlLk6GJQsqaUBKTNV-1" vertex="1">
          <mxGeometry x="280" y="320" width="240" height="40" as="geometry" />
        </mxCell>
        <mxCell id="1dI4HZFnmqrguRHLOIFw-23" style="edgeStyle=orthogonalEdgeStyle;rounded=0;sketch=0;orthogonalLoop=1;jettySize=auto;html=1;exitX=1;exitY=0.5;exitDx=0;exitDy=0;endArrow=classic;endFill=1;endSize=6;fontSize=12;fontColor=#46495D;" parent="WIyWlLk6GJQsqaUBKTNV-1" source="M6YYphjlALdGDyQYb4H6-11" target="WIyWlLk6GJQsqaUBKTNV-11" edge="1">
          <mxGeometry relative="1" as="geometry" />
        </mxCell>
        <mxCell id="1dI4HZFnmqrguRHLOIFw-18" value="&lt;font face=&quot;Helvetica&quot;&gt;&lt;b&gt;Step 3&lt;/b&gt;: Automate deployment via Docker&lt;/font&gt;" style="rounded=0;whiteSpace=wrap;html=1;sketch=0;strokeColor=#788AA3;fillColor=#B2C9AB;fontSize=12;fontColor=#46495D;" parent="WIyWlLk6GJQsqaUBKTNV-1" vertex="1">
          <mxGeometry x="540" y="240" width="220" height="40" as="geometry" />
        </mxCell>
        <mxCell id="1dI4HZFnmqrguRHLOIFw-41" value="&lt;b&gt;Method A &lt;/b&gt;" style="text;html=1;strokeColor=none;fillColor=none;align=center;verticalAlign=middle;whiteSpace=wrap;rounded=0;sketch=0;fontColor=#46495D;" parent="WIyWlLk6GJQsqaUBKTNV-1" vertex="1">
          <mxGeometry x="40" y="210" width="80" height="20" as="geometry" />
        </mxCell>
        <mxCell id="M6YYphjlALdGDyQYb4H6-1" style="edgeStyle=orthogonalEdgeStyle;rounded=0;orthogonalLoop=1;jettySize=auto;html=1;exitX=0;exitY=0.5;exitDx=0;exitDy=0;strokeColor=#788aa3;" parent="WIyWlLk6GJQsqaUBKTNV-1" source="1dI4HZFnmqrguRHLOIFw-45" target="WIyWlLk6GJQsqaUBKTNV-3" edge="1">
          <mxGeometry relative="1" as="geometry" />
        </mxCell>
        <mxCell id="1dI4HZFnmqrguRHLOIFw-45" value="Note:" style="whiteSpace=wrap;html=1;fontSize=12;glass=0;strokeWidth=1;shadow=0;fillColor=#dae8fc;strokeColor=#6c8ebf;" parent="WIyWlLk6GJQsqaUBKTNV-1" vertex="1">
          <mxGeometry x="240" y="160" width="200" height="40" as="geometry" />
        </mxCell>
        <mxCell id="1dI4HZFnmqrguRHLOIFw-48" style="edgeStyle=orthogonalEdgeStyle;rounded=0;sketch=0;orthogonalLoop=1;jettySize=auto;html=1;strokeColor=#788AA3;fillColor=#B2C9AB;fontColor=#46495D;" parent="WIyWlLk6GJQsqaUBKTNV-1" source="1dI4HZFnmqrguRHLOIFw-47" target="1dI4HZFnmqrguRHLOIFw-9" edge="1">
          <mxGeometry relative="1" as="geometry" />
        </mxCell>
        <mxCell id="1dI4HZFnmqrguRHLOIFw-47" value="Note:" style="rounded=0;whiteSpace=wrap;html=1;sketch=0;strokeColor=#6c8ebf;fillColor=#dae8fc;fontSize=12;" parent="WIyWlLk6GJQsqaUBKTNV-1" vertex="1">
          <mxGeometry x="120" y="440" width="200" height="40" as="geometry" />
        </mxCell>
        <mxCell id="1dI4HZFnmqrguRHLOIFw-50" style="edgeStyle=orthogonalEdgeStyle;rounded=0;sketch=0;orthogonalLoop=1;jettySize=auto;html=1;fillColor=#B2C9AB;fontColor=#46495D;strokeColor=#788AA3;" parent="WIyWlLk6GJQsqaUBKTNV-1" source="1dI4HZFnmqrguRHLOIFw-49" target="1dI4HZFnmqrguRHLOIFw-18" edge="1">
          <mxGeometry relative="1" as="geometry" />
        </mxCell>
        <mxCell id="1dI4HZFnmqrguRHLOIFw-49" value="Note:" style="rounded=0;whiteSpace=wrap;html=1;sketch=0;strokeColor=#6c8ebf;fillColor=#dae8fc;fontSize=12;" parent="WIyWlLk6GJQsqaUBKTNV-1" vertex="1">
          <mxGeometry x="800" y="160" width="360" height="40" as="geometry" />
        </mxCell>
        <mxCell id="1dI4HZFnmqrguRHLOIFw-52" style="edgeStyle=orthogonalEdgeStyle;rounded=0;sketch=0;orthogonalLoop=1;jettySize=auto;html=1;strokeColor=#788AA3;fillColor=#B2C9AB;fontColor=#46495D;" parent="WIyWlLk6GJQsqaUBKTNV-1" source="1dI4HZFnmqrguRHLOIFw-51" target="WIyWlLk6GJQsqaUBKTNV-11" edge="1">
          <mxGeometry relative="1" as="geometry" />
        </mxCell>
        <mxCell id="1dI4HZFnmqrguRHLOIFw-51" value="Note:" style="whiteSpace=wrap;html=1;fontSize=12;glass=0;strokeWidth=1;shadow=0;fillColor=#dae8fc;strokeColor=#6c8ebf;" parent="WIyWlLk6GJQsqaUBKTNV-1" vertex="1">
          <mxGeometry x="1080" y="400" width="260" height="40" as="geometry" />
        </mxCell>
        <mxCell id="M6YYphjlALdGDyQYb4H6-0" style="edgeStyle=orthogonalEdgeStyle;rounded=0;orthogonalLoop=1;jettySize=auto;html=1;exitX=1;exitY=0.5;exitDx=0;exitDy=0;" parent="WIyWlLk6GJQsqaUBKTNV-1" source="1dI4HZFnmqrguRHLOIFw-55" target="1dI4HZFnmqrguRHLOIFw-58" edge="1">
          <mxGeometry relative="1" as="geometry" />
        </mxCell>
        <mxCell id="1dI4HZFnmqrguRHLOIFw-55" value="&lt;b&gt;Step 1&lt;/b&gt;: Configure VPN" style="whiteSpace=wrap;html=1;fontSize=12;glass=0;strokeWidth=1;shadow=0;fillColor=#ffe6cc;strokeColor=#d79b00;" parent="WIyWlLk6GJQsqaUBKTNV-1" vertex="1">
          <mxGeometry x="40" y="880" width="240" height="40" as="geometry" />
        </mxCell>
        <mxCell id="PpkG9Ig8I4rQwylqcQ7x-8" style="edgeStyle=orthogonalEdgeStyle;rounded=0;orthogonalLoop=1;jettySize=auto;html=1;exitX=1;exitY=0.5;exitDx=0;exitDy=0;strokeColor=#000000;entryX=0;entryY=0.5;entryDx=0;entryDy=0;" edge="1" parent="WIyWlLk6GJQsqaUBKTNV-1" source="1dI4HZFnmqrguRHLOIFw-56" target="PpkG9Ig8I4rQwylqcQ7x-5">
          <mxGeometry relative="1" as="geometry">
            <mxPoint x="1140" y="819.8823529411766" as="targetPoint" />
          </mxGeometry>
        </mxCell>
        <mxCell id="1dI4HZFnmqrguRHLOIFw-56" value="&lt;b&gt;Step 4&lt;/b&gt;: Automate deployment via Docker Compose?" style="whiteSpace=wrap;html=1;fontSize=12;glass=0;strokeWidth=1;shadow=0;fillColor=#ffe6cc;strokeColor=#d79b00;" parent="WIyWlLk6GJQsqaUBKTNV-1" vertex="1">
          <mxGeometry x="800" y="800" width="320" height="40" as="geometry" />
        </mxCell>
        <mxCell id="1dI4HZFnmqrguRHLOIFw-57" style="edgeStyle=orthogonalEdgeStyle;rounded=0;sketch=0;orthogonalLoop=1;jettySize=auto;html=1;exitX=1;exitY=0.5;exitDx=0;exitDy=0;endArrow=classic;endFill=1;endSize=6;fontSize=12;fontColor=#46495D;" parent="WIyWlLk6GJQsqaUBKTNV-1" source="1dI4HZFnmqrguRHLOIFw-58" target="1dI4HZFnmqrguRHLOIFw-60" edge="1">
          <mxGeometry relative="1" as="geometry" />
        </mxCell>
        <mxCell id="1dI4HZFnmqrguRHLOIFw-58" value="&lt;b&gt;Step 2&lt;/b&gt;: Connect host machine to VPN via Windows." style="rounded=0;whiteSpace=wrap;html=1;sketch=0;strokeColor=#d79b00;fillColor=#ffe6cc;fontSize=12;" parent="WIyWlLk6GJQsqaUBKTNV-1" vertex="1">
          <mxGeometry x="210" y="800" width="350" height="40" as="geometry" />
        </mxCell>
        <mxCell id="M6YYphjlALdGDyQYb4H6-3" style="edgeStyle=orthogonalEdgeStyle;rounded=0;orthogonalLoop=1;jettySize=auto;html=1;exitX=1;exitY=0.5;exitDx=0;exitDy=0;entryX=0.5;entryY=1;entryDx=0;entryDy=0;" parent="WIyWlLk6GJQsqaUBKTNV-1" source="1dI4HZFnmqrguRHLOIFw-60" target="1dI4HZFnmqrguRHLOIFw-56" edge="1">
          <mxGeometry relative="1" as="geometry" />
        </mxCell>
        <mxCell id="1dI4HZFnmqrguRHLOIFw-60" value="&lt;b&gt;Step 3&lt;/b&gt;: Connect VPN to Tor Network via VM" style="rounded=0;whiteSpace=wrap;html=1;sketch=0;strokeColor=#d79b00;fillColor=#ffe6cc;fontSize=12;" parent="WIyWlLk6GJQsqaUBKTNV-1" vertex="1">
          <mxGeometry x="520" y="880" width="320" height="40" as="geometry" />
        </mxCell>
        <mxCell id="1dI4HZFnmqrguRHLOIFw-61" value="&lt;b&gt;Method B &lt;/b&gt;" style="text;html=1;strokeColor=none;fillColor=none;align=center;verticalAlign=middle;whiteSpace=wrap;rounded=0;sketch=0;fontColor=#46495D;" parent="WIyWlLk6GJQsqaUBKTNV-1" vertex="1">
          <mxGeometry x="40" y="930" width="80" height="20" as="geometry" />
        </mxCell>
        <mxCell id="M6YYphjlALdGDyQYb4H6-8" style="edgeStyle=orthogonalEdgeStyle;rounded=0;orthogonalLoop=1;jettySize=auto;html=1;exitX=0.5;exitY=1;exitDx=0;exitDy=0;entryX=0.5;entryY=0;entryDx=0;entryDy=0;strokeColor=#788aa3;" parent="WIyWlLk6GJQsqaUBKTNV-1" source="1dI4HZFnmqrguRHLOIFw-62" target="1dI4HZFnmqrguRHLOIFw-58" edge="1">
          <mxGeometry relative="1" as="geometry" />
        </mxCell>
        <mxCell id="1dI4HZFnmqrguRHLOIFw-62" value="Note: Will there be an increased level of anonymity if the VPN and Tor are running on two different systems?" style="whiteSpace=wrap;html=1;fontSize=12;glass=0;strokeWidth=1;shadow=0;fillColor=#dae8fc;strokeColor=#6c8ebf;" parent="WIyWlLk6GJQsqaUBKTNV-1" vertex="1">
          <mxGeometry x="120" y="680" width="480" height="80" as="geometry" />
        </mxCell>
        <mxCell id="M6YYphjlALdGDyQYb4H6-7" style="edgeStyle=orthogonalEdgeStyle;rounded=0;orthogonalLoop=1;jettySize=auto;html=1;exitX=0;exitY=0.5;exitDx=0;exitDy=0;strokeColor=#788AA3;" parent="WIyWlLk6GJQsqaUBKTNV-1" source="1dI4HZFnmqrguRHLOIFw-64" target="1dI4HZFnmqrguRHLOIFw-55" edge="1">
          <mxGeometry relative="1" as="geometry" />
        </mxCell>
        <mxCell id="1dI4HZFnmqrguRHLOIFw-64" value="Note: Make use of pre-built container images? (&lt;b&gt;WireGuard/OpenVPN&lt;/b&gt;) " style="rounded=0;whiteSpace=wrap;html=1;sketch=0;strokeColor=#6c8ebf;fillColor=#dae8fc;fontSize=12;" parent="WIyWlLk6GJQsqaUBKTNV-1" vertex="1">
          <mxGeometry x="240" y="960" width="360" height="80" as="geometry" />
        </mxCell>
        <mxCell id="M6YYphjlALdGDyQYb4H6-9" style="edgeStyle=orthogonalEdgeStyle;rounded=0;orthogonalLoop=1;jettySize=auto;html=1;exitX=0;exitY=0.5;exitDx=0;exitDy=0;entryX=0.5;entryY=1;entryDx=0;entryDy=0;strokeColor=#788AA3;" parent="WIyWlLk6GJQsqaUBKTNV-1" source="1dI4HZFnmqrguRHLOIFw-66" target="1dI4HZFnmqrguRHLOIFw-60" edge="1">
          <mxGeometry relative="1" as="geometry" />
        </mxCell>
        <mxCell id="1dI4HZFnmqrguRHLOIFw-66" value="Note: The advantage here is that it prevents Tor from seeing who you are behind the VPN in the event that Tor breaks. " style="rounded=0;whiteSpace=wrap;html=1;sketch=0;strokeColor=#6c8ebf;fillColor=#dae8fc;fontSize=12;" parent="WIyWlLk6GJQsqaUBKTNV-1" vertex="1">
          <mxGeometry x="800" y="960" width="430" height="80" as="geometry" />
        </mxCell>
        <mxCell id="M6YYphjlALdGDyQYb4H6-10" style="edgeStyle=orthogonalEdgeStyle;rounded=0;orthogonalLoop=1;jettySize=auto;html=1;entryX=0.5;entryY=0;entryDx=0;entryDy=0;strokeColor=#788AA3;" parent="WIyWlLk6GJQsqaUBKTNV-1" source="1dI4HZFnmqrguRHLOIFw-68" target="1dI4HZFnmqrguRHLOIFw-56" edge="1">
          <mxGeometry relative="1" as="geometry" />
        </mxCell>
        <mxCell id="1dI4HZFnmqrguRHLOIFw-68" value="Note:" style="whiteSpace=wrap;html=1;fontSize=12;glass=0;strokeWidth=1;shadow=0;fillColor=#dae8fc;strokeColor=#6c8ebf;" parent="WIyWlLk6GJQsqaUBKTNV-1" vertex="1">
          <mxGeometry x="1080" y="720" width="260" height="40" as="geometry" />
        </mxCell>
        <mxCell id="M6YYphjlALdGDyQYb4H6-11" value="++" style="text;html=1;strokeColor=none;fillColor=none;align=center;verticalAlign=middle;whiteSpace=wrap;rounded=0;" parent="WIyWlLk6GJQsqaUBKTNV-1" vertex="1">
          <mxGeometry x="827" y="250" width="40" height="20" as="geometry" />
        </mxCell>
        <mxCell id="M6YYphjlALdGDyQYb4H6-15" style="edgeStyle=orthogonalEdgeStyle;rounded=0;sketch=0;orthogonalLoop=1;jettySize=auto;html=1;exitX=1;exitY=0.5;exitDx=0;exitDy=0;endArrow=classic;endFill=1;endSize=6;fontSize=12;fontColor=#46495D;" parent="WIyWlLk6GJQsqaUBKTNV-1" source="1dI4HZFnmqrguRHLOIFw-18" target="M6YYphjlALdGDyQYb4H6-11" edge="1">
          <mxGeometry relative="1" as="geometry">
            <mxPoint x="760" y="260" as="sourcePoint" />
            <mxPoint x="930" y="320" as="targetPoint" />
          </mxGeometry>
        </mxCell>
        <mxCell id="PpkG9Ig8I4rQwylqcQ7x-2" style="edgeStyle=orthogonalEdgeStyle;rounded=0;orthogonalLoop=1;jettySize=auto;html=1;exitX=0.5;exitY=1;exitDx=0;exitDy=0;strokeColor=#788AA3;" edge="1" parent="WIyWlLk6GJQsqaUBKTNV-1" source="PpkG9Ig8I4rQwylqcQ7x-0" target="1dI4HZFnmqrguRHLOIFw-62">
          <mxGeometry relative="1" as="geometry" />
        </mxCell>
        <mxCell id="PpkG9Ig8I4rQwylqcQ7x-0" value="Note: Is an operating system that runs inside a VM like VMWare considered to be on a different system?" style="whiteSpace=wrap;html=1;fontSize=12;glass=0;strokeWidth=1;shadow=0;fillColor=#dae8fc;strokeColor=#6c8ebf;" vertex="1" parent="WIyWlLk6GJQsqaUBKTNV-1">
          <mxGeometry x="480" y="560" width="440" height="80" as="geometry" />
        </mxCell>
        <mxCell id="PpkG9Ig8I4rQwylqcQ7x-3" value="&lt;b&gt;Step 5&lt;/b&gt;: Package VPN installation via packer (&lt;b&gt;hashicorp&lt;/b&gt;)" style="whiteSpace=wrap;html=1;fontSize=12;glass=0;strokeWidth=1;shadow=0;fillColor=#ffe6cc;strokeColor=#d79b00;" vertex="1" parent="WIyWlLk6GJQsqaUBKTNV-1">
          <mxGeometry x="1240" y="880" width="320" height="40" as="geometry" />
        </mxCell>
        <mxCell id="PpkG9Ig8I4rQwylqcQ7x-9" style="edgeStyle=orthogonalEdgeStyle;rounded=0;orthogonalLoop=1;jettySize=auto;html=1;exitX=1;exitY=0.5;exitDx=0;exitDy=0;strokeColor=#000000;" edge="1" parent="WIyWlLk6GJQsqaUBKTNV-1" source="PpkG9Ig8I4rQwylqcQ7x-5" target="PpkG9Ig8I4rQwylqcQ7x-3">
          <mxGeometry relative="1" as="geometry" />
        </mxCell>
        <mxCell id="PpkG9Ig8I4rQwylqcQ7x-5" value="++" style="text;html=1;strokeColor=none;fillColor=none;align=center;verticalAlign=middle;whiteSpace=wrap;rounded=0;" vertex="1" parent="WIyWlLk6GJQsqaUBKTNV-1">
          <mxGeometry x="1160" y="810" width="40" height="20" as="geometry" />
        </mxCell>
      </root>
    </mxGraphModel>
  </diagram>
</mxfile>
